<svg width="92.00000000000001" height="92.00000000000001" xmlns="http://www.w3.org/2000/svg" fill="none">

 <g>
  <title>Layer 1</title>
  <g id="svg_3">
   <path id="svg_1" stroke-linejoin="round" stroke-linecap="round" stroke-width="6.83333" stroke="#EC7979" d="m37.53147,64.07718l16.9501,0l-16.9501,0zm8.4769,-50.7811l0,3.6272l0,-3.6272zm23.0841,9.5614l-2.565,2.5644l2.565,-2.5644zm9.561,23.0837l-3.627,0l3.627,0zm-61.663,0l-3.6273,0l3.6273,0zm8.4986,-20.5193l-2.5645,-2.5644l2.5645,2.5644zm7.6934,33.3452c-2.5359,-2.5365 -4.2628,-5.7681 -4.9622,-9.2861c-0.6994,-3.5179 -0.3399,-7.1642 1.0329,-10.4779c1.3728,-3.3137 3.6974,-6.1459 6.6798,-8.1385c2.9823,-1.9927 6.4886,-3.0562 10.0754,-3.0562c3.5868,0 7.0931,1.0635 10.0754,3.0562c2.9824,1.9926 5.3067,4.8248 6.6797,8.1385c1.373,3.3137 1.732,6.96 1.033,10.4779c-0.699,3.518 -2.426,6.7496 -4.9622,9.2861l-1.9877,1.9841c-1.1364,1.137 -2.0378,2.486 -2.6527,3.971c-0.6149,1.485 -0.9312,3.076 -0.931,4.684l0,1.926c0,1.924 -0.7643,3.769 -2.1248,5.129c-1.3605,1.361 -3.2057,2.125 -5.1297,2.125c-1.924,0 -3.7692,-0.764 -5.1297,-2.125c-1.3605,-1.36 -2.1248,-3.205 -2.1248,-5.129l0,-1.926c0,-3.247 -1.2913,-6.363 -3.5837,-8.655l-1.9877,-1.9841z"/>
   <circle id="svg_2" stroke="#EC7979" r="45.5" cy="45.94118" cx="46.00847"/>
  </g>
 </g>
</svg>