<svg width="92" height="92" xmlns="http://www.w3.org/2000/svg" fill="none">

 <g>
  <title>Layer 1</title>
  <path id="svg_1" fill="#EC7979" d="m36.67038,78.89405c-0.4736,-0.203 -0.8671,-0.562 -1.1185,-1.018c-0.2515,-0.457 -0.3464,-0.986 -0.27,-1.504l4.2119,-27.9315l-11.1777,0c-0.3544,0.0097 -0.7062,-0.0636 -1.0283,-0.2143c-0.3222,-0.1507 -0.606,-0.3748 -0.8296,-0.655c-0.2237,-0.2801 -0.3811,-0.6089 -0.4602,-0.9608c-0.0791,-0.352 -0.0778,-0.7178 0.0038,-1.0691l6.9427,-30.6425c0.1222,-0.5273 0.419,-0.9957 0.8405,-1.3263c0.4215,-0.3306 0.942,-0.5031 1.4738,-0.4887l23.1423,0c0.3457,-0.0012 0.6873,0.0766 0.9997,0.2275c0.3123,0.1509 0.5876,0.3712 0.8054,0.6447c0.2209,0.2765 0.3773,0.6005 0.4574,0.9476c0.0802,0.347 0.082,0.7081 0.0054,1.0559l-4.0036,18.3384l10.9922,0c0.434,-0.0009 0.859,0.1224 1.228,0.3557c0.368,0.2334 0.664,0.5675 0.855,0.9642c0.166,0.3808 0.23,0.7995 0.185,1.2136c-0.045,0.414 -0.196,0.8086 -0.439,1.1436l-30.0854,40.071c-0.2033,0.307 -0.4748,0.561 -0.7924,0.741c-0.3177,0.18 -0.6725,0.282 -1.0358,0.296c-0.3097,-0.006 -0.6156,-0.07 -0.9026,-0.189zm14.2094,-39.8819l4.6285,-21.214l-18.3982,0l-5.8781,25.9282l13.6771,0l-3.6796,24.2307l21.8001,-28.9449l-12.1498,0z"/>
  <circle id="svg_2" stroke="#EC7979" r="45.5" cy="46.08305" cx="45.93958"/>
 </g>
</svg>